# xmcd
# 
# Track frame offsets:
#     150
#     21137
#     36595
#     52390
#     62715
#     77507
#     98795
#     114160
#     143077
#     187950
#     200642
#     219885
# 
# Disc length: 3471
# 
# Revision: 2
# Processed by: cddbd v1.5.2PL0 Copyright (c) Steve Scherf et al.
# Submitted via: fre:ac v1.0.17
# 
DISCID=a60d8d0c
DTITLE=Various Artist - Born To Be Wild II.
DYEAR=0
DGENRE=
TTITLE0=more - Silver Machine
TTITLE1=more - Black Night
TTITLE2=more - Shool's Out
TTITLE3=more - Tush
TTITLE4=more - China Growe
TTITLE5=more - Stay With Me
TTITLE6=more - This Flight Tonight
TTITLE7=more - Souped-Up Ford
TTITLE8=more - I'm Going Home
TTITLE9=more - Let's Work Together
TTITLE10=more - Can't Get Enough
TTITLE11=more - Freebird
EXTD=
EXTT0=HAWKWIND
EXTT1=DEEP PURPLE
EXTT2=Alice Cooper
EXTT3=ZZ Top
EXTT4=DOOBIE BROTHERS
EXTT5=SMALL FACES
EXTT6=NAZARETH
EXTT7=Rory Gallagher
EXTT8=TEN YEARS AFTER
EXTT9=CANNED HEAT
EXTT10=BAD COMPANY
EXTT11=LYNNYRD SKYNNYRD
PLAYORDER=
